<svg width="389" height="89" viewBox="0 0 389 89" fill="none" xmlns="http://www.w3.org/2000/svg">
<path d="M59.7108 38.71C50.1824 37.6152 40.1582 44.2837 38.2724 57.6204C38.2066 58.0853 38.1514 58.56 38.1076 59.0395H37.5456C38.3568 49.994 42.091 43.7171 44.3266 39.5425C47.2246 34.1315 44.8724 28.8009 43.7272 26.4157C42.428 23.7102 36.5424 12.7744 35.0436 9.06689C33.5448 12.7744 27.7032 23.7102 26.404 26.4157C25.2584 28.8009 22.9064 34.1315 25.8044 39.5425C28.025 43.6887 31.7784 50.0349 32.6496 59.0395H32.008C31.9642 58.5598 31.909 58.0853 31.8432 57.6204C29.9572 44.2835 19.933 37.6152 10.4048 38.71C-0.251974 39.9344 -5.97157 56.8242 10.504 60.9049C7.82423 55.9285 11.9926 46.9708 21.6206 52.0469C24.7518 53.6979 26.9328 56.3354 27.835 59.0395H26.222C24.7004 59.0395 23.4668 59.9358 23.4668 61.0417C23.4668 62.1475 24.7004 63.0438 26.222 63.0438H28.1854C28.0248 63.9159 27.6942 64.7413 27.1786 65.483C24.8954 68.7675 17.2488 66.976 21.5166 59.81C14.3036 58.858 12.3868 65.6822 14.471 69.3648C16.7616 74.06 26.7668 75.4673 30.553 68.7675C31.461 67.1607 31.9168 65.1481 32.064 63.0438H32.8368C32.8302 64.6347 32.7308 66.2977 32.5188 68.0351C29.9894 69.6688 30.9754 73.1944 27.7718 75.3021C29.7842 75.3552 31.426 74.9595 31.9558 74.2161C31.9558 76.3721 33.8792 78.1895 35.133 80.806C36.2978 78.1749 38.1746 75.9737 38.1746 74.2161C38.7042 74.9595 40.346 75.3552 42.3586 75.3021C39.4212 73.4951 40.579 70.1847 37.7064 67.8201C37.5034 66.1569 37.4048 64.5671 37.3886 63.0438H38.051C38.198 65.1481 38.6542 67.1607 39.562 68.7675C43.3482 75.4671 53.3534 74.06 55.644 69.3648C57.7284 65.6824 55.8116 58.858 48.5984 59.81C52.8664 66.976 45.2196 68.7675 42.9364 65.483C42.421 64.7413 42.0904 63.9159 41.9298 63.0438H44.0442C45.5658 63.0438 46.7994 62.1473 46.7994 61.0417C46.7994 59.9356 45.5658 59.0395 44.0442 59.0395H42.28C43.1824 56.3354 45.3632 53.6979 48.4944 52.0469C58.1224 46.9708 62.2908 55.9285 59.611 60.9049C76.0874 56.8244 70.3676 39.9346 59.7108 38.71Z" fill="black"/>
<path d="M113.911 48V46.9966L118.307 46.2799V11.4961L113.911 10.8272V9.776H142.675V20.7176H141.385L137.706 10.9705H123.563V28.888H131.638L134.457 21.9599H135.747V37.0584H134.457L131.638 30.0347H123.563V46.2799L127.959 46.9966V48H113.911ZM145.058 48V47.0444L148.641 46.5666V11.2094L145.058 10.7316V9.776H153.419V46.5666L156.764 47.0444V48H145.058ZM172.442 48.4778C170.085 48.4778 167.951 47.9522 166.04 46.9011C164.128 45.818 162.615 44.305 161.5 42.362C160.386 40.4189 159.828 38.1732 159.828 35.625C159.828 33.0767 160.37 30.847 161.453 28.9358C162.568 26.9927 164.049 25.4956 165.896 24.4445C167.776 23.3614 169.862 22.8199 172.155 22.8199C174.162 22.8199 175.962 23.2659 177.555 24.1578C179.147 25.0497 180.389 26.292 181.281 27.8846C182.173 29.4454 182.635 31.2451 182.667 33.2838H165.084V38.014C165.084 40.8171 165.705 43.0946 166.947 44.8465C168.222 46.5666 170.053 47.4266 172.442 47.4266C174.64 47.4266 176.583 46.8055 178.271 45.5632C179.959 44.3209 180.995 42.7123 181.377 40.7374H182.476C182.03 43.0946 180.899 44.9739 179.083 46.3755C177.268 47.777 175.054 48.4778 172.442 48.4778ZM177.411 32.0893C177.411 29.318 176.981 27.2635 176.121 25.9256C175.261 24.5559 173.923 23.8711 172.108 23.8711C169.973 23.8711 168.317 24.6197 167.138 26.1168C165.96 27.6139 165.291 29.6047 165.132 32.0893H177.411ZM196.119 48.4778C193.826 48.4778 192.01 47.9044 190.672 46.7577C189.366 45.611 188.713 43.9068 188.713 41.6453V24.6834L185.369 24.2056V23.25H193.491V41.5497C193.491 43.1742 193.826 44.4484 194.495 45.3721C195.164 46.2958 196.199 46.7577 197.6 46.7577C199.066 46.7577 200.467 46.2799 201.805 45.3243C203.175 44.3369 204.385 43.1264 205.436 41.693V24.6834L202.092 24.2056V23.25H210.214V46.5666L213.559 47.0444V48H205.436V43.4131C204.29 45.0058 202.904 46.2481 201.28 47.14C199.687 48.0319 197.967 48.4778 196.119 48.4778ZM216.036 47.0444L219.38 46.5666V24.6834L216.036 24.2056V23.25H224.158V26.929C226.165 24.1896 228.427 22.8199 230.943 22.8199C232.154 22.8199 233.221 23.1385 234.144 23.7755C235.068 24.3808 235.53 25.2567 235.53 26.4034C235.53 27.2316 235.259 27.9324 234.718 28.5058C234.176 29.0473 233.46 29.318 232.568 29.318C231.548 29.318 230.72 28.9199 230.083 28.1235C230.433 27.6776 230.609 27.1998 230.609 26.6901C230.609 26.1486 230.418 25.7186 230.035 25.4001C229.685 25.0497 229.207 24.8745 228.602 24.8745C227.933 24.8745 227.248 25.193 226.547 25.8301C225.847 26.4353 225.05 27.3909 224.158 28.6969V46.5666L227.981 47.0444V48H216.036V47.0444ZM260.788 48.4778C258.527 48.4778 256.536 47.9522 254.816 46.9011C253.096 45.818 251.758 44.3209 250.802 42.4097C249.847 40.4667 249.369 38.2051 249.369 35.625C249.369 33.0449 249.847 30.7992 250.802 28.888C251.758 26.9449 253.096 25.4478 254.816 24.3967C256.536 23.3455 258.527 22.8199 260.788 22.8199C262.636 22.8199 264.244 23.3137 265.614 24.3011C266.984 25.2567 268.067 26.5786 268.863 28.2669V11.2094L265.519 10.7316V9.776H273.641V46.5666L276.986 47.0444V48H268.863V43.0309C268.067 44.7191 266.984 46.0569 265.614 47.0444C264.244 48 262.636 48.4778 260.788 48.4778ZM261.266 47.2833C262.668 47.2833 263.926 46.8851 265.041 46.0888C266.188 45.2606 267.095 44.1776 267.764 42.8398C268.465 41.4701 268.831 39.9889 268.863 38.3962V32.9015C268.831 31.3089 268.465 29.8436 267.764 28.5058C267.095 27.1361 266.188 26.0531 265.041 25.2567C263.926 24.4285 262.668 24.0144 261.266 24.0144C256.839 24.0144 254.625 27.0883 254.625 33.236V38.014C254.625 44.1935 256.839 47.2833 261.266 47.2833ZM292.639 48.4778C290.281 48.4778 288.147 47.9522 286.236 46.9011C284.325 45.818 282.812 44.305 281.697 42.362C280.582 40.4189 280.025 38.1732 280.025 35.625C280.025 33.0767 280.566 30.847 281.649 28.9358C282.764 26.9927 284.245 25.4956 286.093 24.4445C287.972 23.3614 290.059 22.8199 292.352 22.8199C294.359 22.8199 296.158 23.2659 297.751 24.1578C299.344 25.0497 300.586 26.292 301.478 27.8846C302.37 29.4454 302.832 31.2451 302.864 33.2838H285.281V38.014C285.281 40.8171 285.902 43.0946 287.144 44.8465C288.418 46.5666 290.25 47.4266 292.639 47.4266C294.837 47.4266 296.78 46.8055 298.468 45.5632C300.156 44.3209 301.191 42.7123 301.573 40.7374H302.672C302.226 43.0946 301.096 44.9739 299.28 46.3755C297.464 47.777 295.251 48.4778 292.639 48.4778ZM297.608 32.0893C297.608 29.318 297.178 27.2635 296.318 25.9256C295.458 24.5559 294.12 23.8711 292.304 23.8711C290.17 23.8711 288.514 24.6197 287.335 26.1168C286.156 27.6139 285.488 29.6047 285.328 32.0893H297.608ZM318.096 48V46.9966L322.492 46.2799V11.4961L318.096 10.8272V9.776H332.143V10.8272L327.748 11.4961V46.8533H342.034L345.952 36.3417H347.242V48H318.096ZM354.83 17.7075C353.938 17.7075 353.173 17.4049 352.536 16.7997C351.899 16.1626 351.58 15.3981 351.58 14.5062C351.58 13.6143 351.883 12.8658 352.488 12.2606C353.125 11.6553 353.906 11.3527 354.83 11.3527C355.69 11.3527 356.422 11.6553 357.027 12.2606C357.633 12.8658 357.935 13.6143 357.935 14.5062C357.935 15.3981 357.633 16.1626 357.027 16.7997C356.422 17.4049 355.69 17.7075 354.83 17.7075ZM349.765 48V47.0444L353.109 46.5666V24.7311L349.765 24.2533V23.2977H357.887V46.5666L361.232 47.0444V48H349.765ZM373.706 48.4778C371.094 48.4778 368.912 47.9204 367.16 46.8055C365.408 45.6906 364.532 44.2413 364.532 42.4575C364.532 41.5338 364.771 40.8171 365.249 40.3074C365.758 39.7659 366.427 39.4952 367.255 39.4952C367.892 39.4952 368.434 39.6544 368.88 39.973C369.326 40.2915 369.644 40.7374 369.835 41.3108C369.135 42.0753 368.784 42.8875 368.784 43.7476C368.784 44.735 369.23 45.5951 370.122 46.3277C371.014 47.0603 372.209 47.4266 373.706 47.4266C375.712 47.4266 377.353 46.9807 378.627 46.0888C379.901 45.1651 380.538 43.9387 380.538 42.4097C380.538 41.5178 380.267 40.8489 379.726 40.403C379.184 39.957 378.133 39.4474 376.572 38.874L369.358 36.2461C366.523 35.2268 365.105 33.3315 365.105 30.5603C365.105 28.2987 365.886 26.4512 367.446 25.0178C369.007 23.5526 371.157 22.8199 373.897 22.8199C376.158 22.8199 378.085 23.3455 379.678 24.3967C381.303 25.416 382.115 26.8812 382.115 28.7924C382.115 29.5569 381.908 30.1781 381.494 30.6559C381.08 31.1018 380.538 31.3248 379.869 31.3248C379.2 31.3248 378.643 31.1496 378.197 30.7992C377.783 30.417 377.576 29.9073 377.576 29.2702C377.99 28.9517 378.277 28.6172 378.436 28.2669C378.595 27.8846 378.675 27.4387 378.675 26.929C378.675 26.0371 378.277 25.3045 377.48 24.7311C376.716 24.1578 375.521 23.8711 373.897 23.8711C372.495 23.8711 371.285 24.0941 370.265 24.54C369.278 24.9541 368.529 25.5115 368.02 26.2123C367.51 26.9131 367.255 27.6298 367.255 28.3624C367.255 29.1269 367.526 29.7321 368.068 30.1781C368.641 30.624 369.676 31.1177 371.173 31.6592L377.862 34.0482C379.423 34.6216 380.602 35.4179 381.398 36.4372C382.195 37.4565 382.593 38.7785 382.593 40.403C382.593 42.7283 381.86 44.6554 380.395 46.1844C378.93 47.7133 376.7 48.4778 373.706 48.4778Z" fill="#0D0D0D"/>
<path d="M113.2 81V80.37L115.96 79.92V58.08L113.2 57.66V57H122.02V57.66L119.26 58.08V79.92L122.02 80.37V81H113.2ZM124.031 80.4L126.131 80.1V66.36L124.031 66.06V65.46H129.131V68.7C129.871 67.62 130.741 66.77 131.741 66.15C132.741 65.51 133.821 65.19 134.981 65.19C136.421 65.19 137.551 65.55 138.371 66.27C139.211 66.99 139.631 68.06 139.631 69.48V80.1L141.731 80.4V81H134.831V80.4L136.631 80.1V69.54C136.631 68.5 136.421 67.7 136.001 67.14C135.581 66.56 134.931 66.27 134.051 66.27C133.131 66.27 132.241 66.61 131.381 67.29C130.541 67.95 129.791 68.77 129.131 69.75V80.1L130.931 80.4V81H124.031V80.4ZM149.284 81.3C147.964 81.3 146.904 80.97 146.104 80.31C145.324 79.65 144.934 78.6 144.934 77.16V66.36L142.804 66.06V65.46H144.934V62.97L147.934 62.22V65.46H151.834V66.06L147.934 66.36V77.1C147.934 79.22 148.694 80.28 150.214 80.28C150.534 80.28 150.834 80.23 151.114 80.13C151.414 80.03 151.644 79.93 151.804 79.83C151.984 79.73 152.094 79.66 152.134 79.62L152.524 80.1C151.624 80.9 150.544 81.3 149.284 81.3ZM160.966 81.3C159.486 81.3 158.146 80.97 156.946 80.31C155.746 79.63 154.796 78.68 154.096 77.46C153.396 76.24 153.046 74.83 153.046 73.23C153.046 71.63 153.386 70.23 154.066 69.03C154.766 67.81 155.696 66.87 156.856 66.21C158.036 65.53 159.346 65.19 160.786 65.19C162.046 65.19 163.176 65.47 164.176 66.03C165.176 66.59 165.956 67.37 166.516 68.37C167.076 69.35 167.366 70.48 167.386 71.76H156.346V74.73C156.346 76.49 156.736 77.92 157.516 79.02C158.316 80.1 159.466 80.64 160.966 80.64C162.346 80.64 163.566 80.25 164.626 79.47C165.686 78.69 166.336 77.68 166.576 76.44H167.266C166.986 77.92 166.276 79.1 165.136 79.98C163.996 80.86 162.606 81.3 160.966 81.3ZM164.086 71.01C164.086 69.27 163.816 67.98 163.276 67.14C162.736 66.28 161.896 65.85 160.756 65.85C159.416 65.85 158.376 66.32 157.636 67.26C156.896 68.2 156.476 69.45 156.376 71.01H164.086ZM169.382 80.4L171.482 80.1V66.36L169.382 66.06V65.46H174.482V67.77C175.742 66.05 177.162 65.19 178.742 65.19C179.502 65.19 180.172 65.39 180.752 65.79C181.332 66.17 181.622 66.72 181.622 67.44C181.622 67.96 181.452 68.4 181.112 68.76C180.772 69.1 180.322 69.27 179.762 69.27C179.122 69.27 178.602 69.02 178.202 68.52C178.422 68.24 178.532 67.94 178.532 67.62C178.532 67.28 178.412 67.01 178.172 66.81C177.952 66.59 177.652 66.48 177.272 66.48C176.852 66.48 176.422 66.68 175.982 67.08C175.542 67.46 175.042 68.06 174.482 68.88V80.1L176.882 80.4V81H169.382V80.4ZM185.864 61.98C185.304 61.98 184.824 61.79 184.424 61.41C184.024 61.01 183.824 60.53 183.824 59.97C183.824 59.41 184.014 58.94 184.394 58.56C184.794 58.18 185.284 57.99 185.864 57.99C186.404 57.99 186.864 58.18 187.244 58.56C187.624 58.94 187.814 59.41 187.814 59.97C187.814 60.53 187.624 61.01 187.244 61.41C186.864 61.79 186.404 61.98 185.864 61.98ZM182.684 81V80.4L184.784 80.1V66.39L182.684 66.09V65.49H187.784V80.1L189.884 80.4V81H182.684ZM199.576 81.3C198.136 81.3 196.826 80.97 195.646 80.31C194.466 79.63 193.526 78.68 192.826 77.46C192.146 76.22 191.806 74.81 191.806 73.23C191.806 71.65 192.146 70.25 192.826 69.03C193.526 67.81 194.466 66.87 195.646 66.21C196.826 65.53 198.136 65.19 199.576 65.19C201.016 65.19 202.326 65.53 203.506 66.21C204.686 66.87 205.616 67.81 206.296 69.03C206.996 70.25 207.346 71.65 207.346 73.23C207.346 74.81 206.996 76.22 206.296 77.46C205.616 78.68 204.686 79.63 203.506 80.31C202.326 80.97 201.016 81.3 199.576 81.3ZM199.576 80.64C201.056 80.64 202.166 80.1 202.906 79.02C203.666 77.94 204.046 76.51 204.046 74.73V71.73C204.046 69.95 203.666 68.53 202.906 67.47C202.166 66.39 201.056 65.85 199.576 65.85C198.096 65.85 196.976 66.39 196.216 67.47C195.476 68.53 195.106 69.95 195.106 71.73V74.73C195.106 76.51 195.476 77.94 196.216 79.02C196.976 80.1 198.096 80.64 199.576 80.64ZM209.431 80.4L211.531 80.1V66.36L209.431 66.06V65.46H214.531V67.77C215.791 66.05 217.211 65.19 218.791 65.19C219.551 65.19 220.221 65.39 220.801 65.79C221.381 66.17 221.671 66.72 221.671 67.44C221.671 67.96 221.501 68.4 221.161 68.76C220.821 69.1 220.371 69.27 219.811 69.27C219.171 69.27 218.651 69.02 218.251 68.52C218.471 68.24 218.581 67.94 218.581 67.62C218.581 67.28 218.461 67.01 218.221 66.81C218.001 66.59 217.701 66.48 217.321 66.48C216.901 66.48 216.471 66.68 216.031 67.08C215.591 67.46 215.091 68.06 214.531 68.88V80.1L216.931 80.4V81H209.431V80.4ZM237.53 81.3C236.11 81.3 234.86 80.97 233.78 80.31C232.7 79.63 231.86 78.69 231.26 77.49C230.66 76.27 230.36 74.85 230.36 73.23C230.36 71.61 230.66 70.2 231.26 69C231.86 67.78 232.7 66.84 233.78 66.18C234.86 65.52 236.11 65.19 237.53 65.19C238.69 65.19 239.7 65.5 240.56 66.12C241.42 66.72 242.1 67.55 242.6 68.61V57.9L240.5 57.6V57H245.6V80.1L247.7 80.4V81H242.6V77.88C242.1 78.94 241.42 79.78 240.56 80.4C239.7 81 238.69 81.3 237.53 81.3ZM237.83 80.55C238.71 80.55 239.5 80.3 240.2 79.8C240.92 79.28 241.49 78.6 241.91 77.76C242.35 76.9 242.58 75.97 242.6 74.97V71.52C242.58 70.52 242.35 69.6 241.91 68.76C241.49 67.9 240.92 67.22 240.2 66.72C239.5 66.2 238.71 65.94 237.83 65.94C235.05 65.94 233.66 67.87 233.66 71.73V74.73C233.66 78.61 235.05 80.55 237.83 80.55ZM257.528 81.3C256.048 81.3 254.708 80.97 253.508 80.31C252.308 79.63 251.358 78.68 250.658 77.46C249.958 76.24 249.608 74.83 249.608 73.23C249.608 71.63 249.948 70.23 250.628 69.03C251.328 67.81 252.258 66.87 253.418 66.21C254.598 65.53 255.908 65.19 257.348 65.19C258.608 65.19 259.738 65.47 260.738 66.03C261.738 66.59 262.518 67.37 263.078 68.37C263.638 69.35 263.928 70.48 263.948 71.76H252.908V74.73C252.908 76.49 253.298 77.92 254.078 79.02C254.878 80.1 256.028 80.64 257.528 80.64C258.908 80.64 260.128 80.25 261.188 79.47C262.248 78.69 262.898 77.68 263.138 76.44H263.828C263.548 77.92 262.838 79.1 261.698 79.98C260.558 80.86 259.168 81.3 257.528 81.3ZM260.648 71.01C260.648 69.27 260.378 67.98 259.838 67.14C259.298 66.28 258.458 65.85 257.318 65.85C255.978 65.85 254.938 66.32 254.198 67.26C253.458 68.2 253.038 69.45 252.938 71.01H260.648ZM272.335 81.3C270.695 81.3 269.325 80.95 268.225 80.25C267.125 79.55 266.575 78.64 266.575 77.52C266.575 76.94 266.725 76.49 267.025 76.17C267.345 75.83 267.765 75.66 268.285 75.66C268.685 75.66 269.025 75.76 269.305 75.96C269.585 76.16 269.785 76.44 269.905 76.8C269.465 77.28 269.245 77.79 269.245 78.33C269.245 78.95 269.525 79.49 270.085 79.95C270.645 80.41 271.395 80.64 272.335 80.64C273.595 80.64 274.625 80.36 275.425 79.8C276.225 79.22 276.625 78.45 276.625 77.49C276.625 76.93 276.455 76.51 276.115 76.23C275.775 75.95 275.115 75.63 274.135 75.27L269.605 73.62C267.825 72.98 266.935 71.79 266.935 70.05C266.935 68.63 267.425 67.47 268.405 66.57C269.385 65.65 270.735 65.19 272.455 65.19C273.875 65.19 275.085 65.52 276.085 66.18C277.105 66.82 277.615 67.74 277.615 68.94C277.615 69.42 277.485 69.81 277.225 70.11C276.965 70.39 276.625 70.53 276.205 70.53C275.785 70.53 275.435 70.42 275.155 70.2C274.895 69.96 274.765 69.64 274.765 69.24C275.025 69.04 275.205 68.83 275.305 68.61C275.405 68.37 275.455 68.09 275.455 67.77C275.455 67.21 275.205 66.75 274.705 66.39C274.225 66.03 273.475 65.85 272.455 65.85C271.575 65.85 270.815 65.99 270.175 66.27C269.555 66.53 269.085 66.88 268.765 67.32C268.445 67.76 268.285 68.21 268.285 68.67C268.285 69.15 268.455 69.53 268.795 69.81C269.155 70.09 269.805 70.4 270.745 70.74L274.945 72.24C275.925 72.6 276.665 73.1 277.165 73.74C277.665 74.38 277.915 75.21 277.915 76.23C277.915 77.69 277.455 78.9 276.535 79.86C275.615 80.82 274.215 81.3 272.335 81.3ZM283.422 61.98C282.862 61.98 282.382 61.79 281.982 61.41C281.582 61.01 281.382 60.53 281.382 59.97C281.382 59.41 281.572 58.94 281.952 58.56C282.352 58.18 282.842 57.99 283.422 57.99C283.962 57.99 284.422 58.18 284.802 58.56C285.182 58.94 285.372 59.41 285.372 59.97C285.372 60.53 285.182 61.01 284.802 61.41C284.422 61.79 283.962 61.98 283.422 61.98ZM280.242 81V80.4L282.342 80.1V66.39L280.242 66.09V65.49H285.342V80.1L287.442 80.4V81H280.242ZM304.274 64.05C304.274 64.83 303.984 65.5 303.404 66.06C302.824 66.62 301.904 66.98 300.644 67.14C301.164 67.9 301.424 68.94 301.424 70.26C301.424 71.82 300.864 73.05 299.744 73.95C298.644 74.85 297.244 75.3 295.544 75.3C294.844 75.3 294.204 75.24 293.624 75.12C292.344 75.2 291.704 75.7 291.704 76.62C291.704 77.14 291.914 77.52 292.334 77.76C292.774 78 293.464 78.12 294.404 78.12H297.764C299.384 78.12 300.584 78.45 301.364 79.11C302.164 79.77 302.564 80.9 302.564 82.5C302.564 83.62 302.274 84.65 301.694 85.59C301.134 86.53 300.314 87.27 299.234 87.81C298.154 88.37 296.864 88.65 295.364 88.65C293.104 88.65 291.434 88.31 290.354 87.63C289.294 86.95 288.764 86.05 288.764 84.93C288.764 84.25 289.024 83.65 289.544 83.13C290.064 82.61 290.774 82.35 291.674 82.35C291.854 82.35 292.224 82.39 292.784 82.47C292.164 83.13 291.854 83.91 291.854 84.81C291.854 85.67 292.154 86.42 292.754 87.06C293.354 87.7 294.334 88.02 295.694 88.02C296.874 88.02 297.924 87.79 298.844 87.33C299.784 86.89 300.504 86.31 301.004 85.59C301.504 84.87 301.754 84.13 301.754 83.37C301.754 82.53 301.484 81.92 300.944 81.54C300.404 81.18 299.444 81 298.064 81H294.404C293.004 81 291.944 80.73 291.224 80.19C290.524 79.63 290.174 78.81 290.174 77.73C290.174 77.01 290.374 76.38 290.774 75.84C291.194 75.28 291.724 74.92 292.364 74.76C290.624 74.02 289.754 72.52 289.754 70.26C289.754 68.68 290.304 67.44 291.404 66.54C292.504 65.64 293.884 65.19 295.544 65.19C297.644 65.19 299.164 65.63 300.104 66.51C300.664 66.41 301.084 66.23 301.364 65.97C301.644 65.69 301.784 65.38 301.784 65.04C301.784 64.72 301.694 64.48 301.514 64.32C301.334 64.14 301.124 64.05 300.884 64.05C300.884 63.61 301.044 63.23 301.364 62.91C301.704 62.57 302.104 62.4 302.564 62.4C303.064 62.4 303.474 62.55 303.794 62.85C304.114 63.15 304.274 63.55 304.274 64.05ZM298.604 69.51C298.604 68.29 298.344 67.35 297.824 66.69C297.324 66.03 296.564 65.7 295.544 65.7C293.564 65.7 292.574 66.97 292.574 69.51V70.98C292.574 72.16 292.814 73.09 293.294 73.77C293.794 74.45 294.544 74.79 295.544 74.79C296.564 74.79 297.324 74.45 297.824 73.77C298.344 73.09 298.604 72.16 298.604 70.98V69.51ZM304.939 80.4L307.039 80.1V66.36L304.939 66.06V65.46H310.039V68.7C310.779 67.62 311.649 66.77 312.649 66.15C313.649 65.51 314.729 65.19 315.889 65.19C317.329 65.19 318.459 65.55 319.279 66.27C320.119 66.99 320.539 68.06 320.539 69.48V80.1L322.639 80.4V81H315.739V80.4L317.539 80.1V69.54C317.539 68.5 317.329 67.7 316.909 67.14C316.489 66.56 315.839 66.27 314.959 66.27C314.039 66.27 313.149 66.61 312.289 67.29C311.449 67.95 310.699 68.77 310.039 69.75V80.1L311.839 80.4V81H304.939V80.4ZM334.37 61.98C333.81 61.98 333.33 61.79 332.93 61.41C332.53 61.01 332.33 60.53 332.33 59.97C332.33 59.41 332.52 58.94 332.9 58.56C333.3 58.18 333.79 57.99 334.37 57.99C334.91 57.99 335.37 58.18 335.75 58.56C336.13 58.94 336.32 59.41 336.32 59.97C336.32 60.53 336.13 61.01 335.75 61.41C335.37 61.79 334.91 61.98 334.37 61.98ZM331.19 81V80.4L333.29 80.1V66.39L331.19 66.09V65.49H336.29V80.1L338.39 80.4V81H331.19ZM339.831 80.4L341.931 80.1V66.36L339.831 66.06V65.46H344.931V68.7C345.671 67.62 346.541 66.77 347.541 66.15C348.541 65.51 349.621 65.19 350.781 65.19C352.221 65.19 353.351 65.55 354.171 66.27C355.011 66.99 355.431 68.06 355.431 69.48V80.1L357.531 80.4V81H350.631V80.4L352.431 80.1V69.54C352.431 68.5 352.221 67.7 351.801 67.14C351.381 66.56 350.731 66.27 349.851 66.27C348.931 66.27 348.041 66.61 347.181 67.29C346.341 67.95 345.591 68.77 344.931 69.75V80.1L346.731 80.4V81H339.831V80.4ZM367.124 81.3C365.684 81.3 364.374 80.97 363.194 80.31C362.014 79.63 361.074 78.68 360.374 77.46C359.694 76.22 359.354 74.81 359.354 73.23C359.354 71.57 359.714 70.13 360.434 68.91C361.174 67.69 362.134 66.77 363.314 66.15C364.494 65.51 365.764 65.19 367.124 65.19C368.264 65.19 369.304 65.39 370.244 65.79C371.184 66.17 371.924 66.71 372.464 67.41C373.024 68.11 373.304 68.9 373.304 69.78C373.304 70.44 373.134 70.95 372.794 71.31C372.454 71.65 372.004 71.82 371.444 71.82C370.904 71.82 370.454 71.64 370.094 71.28C369.734 70.92 369.554 70.47 369.554 69.93C369.854 69.73 370.064 69.51 370.184 69.27C370.304 69.03 370.364 68.73 370.364 68.37C370.364 67.63 370.064 67.03 369.464 66.57C368.884 66.09 368.104 65.85 367.124 65.85C365.684 65.85 364.574 66.37 363.794 67.41C363.034 68.43 362.654 69.87 362.654 71.73V74.73C362.654 76.51 363.024 77.94 363.764 79.02C364.524 80.1 365.644 80.64 367.124 80.64C368.484 80.64 369.664 80.26 370.664 79.5C371.684 78.72 372.314 77.7 372.554 76.44H373.244C372.964 77.92 372.264 79.1 371.144 79.98C370.044 80.86 368.704 81.3 367.124 81.3ZM377.771 81.3C377.271 81.3 376.841 81.13 376.481 80.79C376.141 80.43 375.971 80 375.971 79.5C375.971 79 376.141 78.59 376.481 78.27C376.841 77.93 377.271 77.76 377.771 77.76C378.271 77.76 378.691 77.93 379.031 78.27C379.371 78.59 379.541 79 379.541 79.5C379.541 80 379.371 80.43 379.031 80.79C378.691 81.13 378.271 81.3 377.771 81.3Z" fill="#0D0D0D"/>
</svg>
