<svg width="37" height="29" viewBox="0 0 37 29" fill="none" xmlns="http://www.w3.org/2000/svg">
<path d="M34.625 3.74984H28.5333L27.8417 1.44396C27.7311 1.07473 27.5044 0.751017 27.1951 0.520886C26.8859 0.290755 26.5108 0.166477 26.1253 0.166504H11.9496C11.5642 0.166477 11.189 0.290755 10.8798 0.520886C10.5706 0.751017 10.3439 1.07473 10.2332 1.44396L9.54165 3.74984H2.37498C1.8998 3.74984 1.44408 3.9386 1.10808 4.2746C0.772077 4.61061 0.583313 5.06632 0.583313 5.5415V27.0415C0.583313 27.5167 0.772077 27.9724 1.10808 28.3084C1.44408 28.6444 1.8998 28.8332 2.37498 28.8332H34.625C35.1002 28.8332 35.5559 28.6444 35.8919 28.3084C36.2279 27.9724 36.4166 27.5167 36.4166 27.0415V5.5415C36.4166 5.06632 36.2279 4.61061 35.8919 4.2746C35.5559 3.9386 35.1002 3.74984 34.625 3.74984ZM18.5 21.6665C17.0825 21.6665 15.6969 21.2462 14.5184 20.4587C13.3398 19.6712 12.4213 18.5519 11.8788 17.2424C11.3364 15.9329 11.1945 14.4919 11.471 13.1017C11.7475 11.7115 12.4301 10.4345 13.4324 9.43224C14.4347 8.42996 15.7116 7.7474 17.1018 7.47088C18.492 7.19435 19.933 7.33627 21.2425 7.8787C22.5521 8.42113 23.6714 9.3397 24.4588 10.5183C25.2463 11.6968 25.6666 13.0824 25.6666 14.4998C25.6666 16.4006 24.9116 18.2234 23.5676 19.5674C22.2236 20.9114 20.4007 21.6665 18.5 21.6665Z" fill="black"/>
</svg>
